<svg id="svg" version="1.1" xmlns="http://www.w3.org/2000/svg" xmlns:xlink="http://www.w3.org/1999/xlink" width="400" height="426.9158878504673" viewBox="0, 0, 400,426.9158878504673"><g id="svgg"><path id="path0" d="M191.558 34.957 C 191.425 35.100,185.837 35.298,179.141 35.397 C 169.599 35.538,166.590 35.710,165.232 36.189 C 163.985 36.629,161.884 36.800,157.740 36.800 C 153.005 36.800,151.575 36.942,149.704 37.600 C 148.151 38.146,146.402 38.400,144.200 38.400 C 141.998 38.400,140.249 38.654,138.696 39.200 C 137.246 39.710,135.364 40.005,133.510 40.013 C 131.688 40.021,129.777 40.316,128.400 40.800 C 127.190 41.226,125.120 41.586,123.800 41.601 C 122.480 41.616,120.950 41.886,120.400 42.200 C 119.832 42.525,118.303 42.778,116.863 42.786 C 114.947 42.797,114.077 42.996,113.309 43.600 C 112.645 44.123,111.686 44.400,110.545 44.400 C 109.561 44.400,108.144 44.750,107.304 45.200 C 106.406 45.682,105.048 46.000,103.892 46.000 C 102.825 46.000,101.548 46.278,101.018 46.625 C 100.493 46.969,99.138 47.327,98.005 47.421 C 96.873 47.515,95.559 47.864,95.084 48.196 C 94.602 48.534,93.364 48.800,92.274 48.800 C 90.932 48.800,90.010 49.049,89.309 49.600 C 88.728 50.057,87.686 50.400,86.878 50.400 C 86.100 50.400,85.136 50.696,84.736 51.058 C 84.335 51.420,83.061 51.802,81.904 51.907 C 80.747 52.012,79.530 52.326,79.200 52.606 C 78.870 52.885,77.845 53.237,76.923 53.388 C 76.001 53.539,75.034 53.918,74.774 54.231 C 74.514 54.544,73.677 54.800,72.914 54.800 C 72.132 54.800,71.082 55.149,70.509 55.600 C 69.950 56.040,68.946 56.400,68.278 56.400 C 67.610 56.400,66.765 56.670,66.401 56.999 C 66.037 57.329,64.882 57.758,63.835 57.954 C 62.787 58.150,61.730 58.510,61.485 58.755 C 61.240 59.000,60.650 59.200,60.174 59.200 C 59.698 59.200,58.850 59.560,58.291 60.000 C 57.731 60.440,56.998 60.800,56.661 60.800 C 56.323 60.800,55.927 60.995,55.780 61.233 C 55.632 61.471,54.767 62.008,53.856 62.426 C 50.132 64.136,42.000 71.036,42.000 72.487 C 42.000 72.695,41.370 73.634,40.600 74.574 C 39.830 75.514,39.200 76.555,39.200 76.887 C 39.200 77.220,38.840 77.950,38.400 78.509 C 37.960 79.069,37.600 79.881,37.600 80.314 C 37.600 80.747,37.330 81.326,37.000 81.600 C 36.670 81.874,36.400 82.664,36.400 83.355 C 36.400 84.046,35.995 85.329,35.500 86.206 L 34.600 87.800 34.623 141.600 C 34.645 193.063,34.679 195.504,35.397 197.800 C 35.957 199.592,36.157 201.516,36.185 205.400 C 36.214 209.507,36.367 210.869,36.911 211.880 C 37.327 212.652,37.600 214.041,37.600 215.382 C 37.600 216.839,37.875 218.116,38.400 219.096 C 38.993 220.203,39.200 221.352,39.200 223.547 C 39.200 225.866,39.384 226.803,40.050 227.882 C 40.716 228.958,40.849 229.635,40.663 230.991 C 40.476 232.355,40.593 232.938,41.213 233.725 C 41.727 234.379,42.000 235.341,42.000 236.501 C 42.000 237.768,42.229 238.483,42.800 239.000 C 43.240 239.398,43.601 240.191,43.603 240.762 C 43.604 241.333,43.963 242.340,44.400 243.000 C 44.869 243.708,45.196 244.877,45.197 245.851 C 45.199 246.787,45.446 247.706,45.769 247.974 C 46.082 248.234,46.456 249.145,46.600 250.000 C 46.744 250.855,47.118 251.766,47.431 252.026 C 47.744 252.286,48.000 253.078,48.000 253.787 C 48.000 254.568,48.315 255.361,48.800 255.800 C 49.240 256.198,49.601 256.901,49.603 257.362 C 49.604 257.823,49.963 258.740,50.400 259.400 C 50.837 260.060,51.196 261.108,51.197 261.729 C 51.199 262.349,51.470 263.127,51.800 263.457 C 52.130 263.787,52.400 264.376,52.400 264.767 C 52.400 265.157,52.760 265.802,53.200 266.200 C 53.640 266.598,54.000 267.263,54.000 267.678 C 54.000 268.093,54.322 268.920,54.716 269.516 C 55.891 271.295,56.382 272.146,56.842 273.200 C 58.050 275.973,58.654 277.098,59.487 278.131 C 59.989 278.753,60.400 279.446,60.400 279.673 C 60.400 279.899,60.940 280.884,61.600 281.862 C 62.260 282.840,62.800 283.879,62.800 284.171 C 62.800 284.463,63.062 284.919,63.382 285.185 C 63.702 285.451,64.452 286.508,65.048 287.534 C 65.645 288.560,66.733 290.139,67.466 291.041 C 68.200 291.944,68.800 292.970,68.800 293.321 C 68.800 293.673,69.090 294.123,69.445 294.321 C 69.801 294.520,70.746 295.672,71.545 296.882 C 73.494 299.828,77.261 304.643,80.200 307.942 C 84.232 312.469,84.957 313.341,86.157 315.106 C 87.783 317.497,102.914 332.256,106.459 334.909 C 108.077 336.119,110.565 338.300,111.988 339.755 C 113.412 341.210,114.737 342.400,114.932 342.400 C 115.394 342.400,120.259 346.272,120.903 347.153 C 121.176 347.527,122.030 348.261,122.800 348.785 C 123.570 349.309,125.390 350.697,126.845 351.869 C 128.299 353.041,129.749 354.000,130.066 354.000 C 130.383 354.000,131.263 354.642,132.022 355.426 C 132.780 356.210,134.345 357.393,135.500 358.055 C 136.655 358.717,137.600 359.408,137.600 359.590 C 137.600 359.773,138.112 360.100,138.738 360.318 C 139.363 360.536,140.512 361.274,141.290 361.957 C 142.069 362.641,142.914 363.200,143.169 363.200 C 143.734 363.200,146.078 364.809,146.520 365.500 C 146.696 365.775,147.120 366.000,147.463 366.000 C 147.805 366.000,148.990 366.720,150.095 367.600 C 151.200 368.480,152.263 369.200,152.456 369.200 C 152.650 369.200,153.705 369.830,154.800 370.600 C 155.895 371.370,157.036 372.000,157.334 372.000 C 157.632 372.000,158.202 372.360,158.600 372.800 C 158.998 373.240,159.460 373.600,159.627 373.600 C 159.794 373.600,160.887 374.230,162.056 375.000 C 163.225 375.770,164.383 376.400,164.629 376.400 C 164.875 376.400,165.402 376.760,165.800 377.200 C 166.198 377.640,166.945 378.000,167.459 378.000 C 167.973 378.000,168.618 378.360,168.893 378.800 C 169.168 379.240,169.681 379.600,170.034 379.600 C 170.387 379.600,171.002 379.960,171.400 380.400 C 171.798 380.840,172.535 381.200,173.038 381.200 C 173.541 381.200,174.060 381.374,174.192 381.587 C 174.543 382.155,178.350 384.000,179.171 384.000 C 179.559 384.000,180.202 384.360,180.600 384.800 C 180.998 385.240,181.628 385.600,182.000 385.600 C 182.372 385.600,183.002 385.961,183.401 386.402 C 183.850 386.898,184.551 387.171,185.240 387.118 C 185.852 387.072,186.693 387.341,187.108 387.717 C 187.523 388.093,188.270 388.400,188.768 388.400 C 189.266 388.400,190.131 388.760,190.691 389.200 C 191.408 389.764,192.314 390.000,193.765 390.000 C 194.957 390.000,196.187 390.255,196.689 390.607 C 197.738 391.342,201.722 391.310,203.200 390.555 C 203.750 390.273,205.232 389.931,206.494 389.794 C 207.755 389.656,208.891 389.377,209.017 389.172 C 209.144 388.967,209.561 388.800,209.944 388.800 C 210.819 388.800,212.793 387.901,212.797 387.500 C 212.799 387.335,213.312 387.200,213.938 387.200 C 214.564 387.200,215.383 386.861,215.758 386.446 C 216.134 386.031,217.005 385.579,217.694 385.441 C 218.384 385.303,219.229 384.947,219.574 384.649 C 219.918 384.351,221.227 383.791,222.483 383.404 C 223.738 383.018,225.071 382.364,225.445 381.951 C 225.818 381.538,226.503 381.200,226.966 381.200 C 227.429 381.200,228.032 380.840,228.307 380.400 C 228.582 379.960,229.167 379.600,229.607 379.600 C 230.048 379.600,230.716 379.240,231.093 378.800 C 231.470 378.360,232.085 378.000,232.460 378.000 C 232.836 378.000,233.391 377.752,233.695 377.448 C 233.999 377.144,235.253 376.420,236.483 375.838 C 237.712 375.257,238.939 374.515,239.208 374.190 C 239.477 373.866,240.042 373.600,240.462 373.600 C 240.881 373.600,241.324 373.343,241.445 373.028 C 241.565 372.713,242.179 372.276,242.809 372.057 C 243.439 371.837,245.270 370.793,246.877 369.736 C 248.485 368.680,250.430 367.478,251.200 367.066 C 251.970 366.653,252.960 366.005,253.400 365.624 C 253.840 365.244,255.055 364.445,256.100 363.850 C 257.145 363.254,258.000 362.599,258.000 362.395 C 258.000 362.191,258.972 361.564,260.159 361.002 C 261.347 360.440,262.548 359.703,262.830 359.364 C 263.111 359.025,263.895 358.462,264.571 358.112 C 265.247 357.763,266.610 356.820,267.600 356.017 C 268.590 355.214,269.913 354.302,270.539 353.990 C 271.166 353.678,272.156 352.952,272.739 352.377 C 273.323 351.802,275.150 350.281,276.800 348.997 C 278.450 347.713,280.081 346.378,280.424 346.031 C 280.767 345.684,282.072 344.695,283.324 343.834 C 284.576 342.972,285.600 342.117,285.600 341.934 C 285.600 341.750,285.830 341.600,286.112 341.600 C 286.394 341.600,287.185 341.005,287.870 340.279 C 288.556 339.552,290.710 337.626,292.658 335.998 C 294.606 334.371,296.965 332.278,297.900 331.347 C 298.835 330.416,299.600 329.759,299.600 329.886 C 299.600 330.365,313.641 315.920,314.563 314.493 C 315.093 313.672,317.146 311.262,319.124 309.139 C 321.103 307.015,322.842 304.897,322.990 304.433 C 323.137 303.968,323.392 303.671,323.555 303.772 C 323.719 303.874,324.181 303.381,324.582 302.678 C 324.983 301.975,325.871 300.805,326.556 300.078 C 327.240 299.351,327.755 298.676,327.700 298.578 C 327.429 298.096,327.659 297.600,328.154 297.600 C 328.459 297.600,329.005 296.976,329.367 296.213 C 329.729 295.450,330.258 294.685,330.543 294.513 C 330.827 294.341,331.189 293.930,331.346 293.600 C 331.986 292.255,332.736 291.120,333.573 290.228 C 334.060 289.710,334.497 289.018,334.546 288.691 C 334.594 288.363,335.086 287.488,335.639 286.747 C 336.192 286.006,337.159 284.500,337.787 283.400 C 338.416 282.300,339.126 281.268,339.365 281.106 C 339.604 280.944,339.660 280.809,339.490 280.806 C 339.064 280.798,340.202 278.662,340.974 278.022 C 341.318 277.736,341.600 277.192,341.600 276.813 C 341.600 276.434,341.960 275.798,342.400 275.400 C 342.840 275.002,343.200 274.336,343.200 273.921 C 343.200 273.506,343.560 272.780,344.000 272.308 C 344.440 271.836,344.800 271.145,344.800 270.774 C 344.800 270.402,345.070 269.874,345.400 269.600 C 345.730 269.326,346.000 268.702,346.000 268.213 C 346.000 267.724,346.360 266.998,346.800 266.600 C 347.240 266.202,347.600 265.373,347.600 264.758 C 347.600 264.125,347.893 263.476,348.274 263.262 C 348.647 263.054,348.988 262.317,349.036 261.616 C 349.084 260.918,349.411 260.030,349.762 259.642 C 350.113 259.254,350.400 258.559,350.400 258.097 C 350.400 257.635,350.648 257.009,350.951 256.706 C 351.254 256.403,351.634 255.535,351.796 254.777 C 351.957 254.020,352.354 253.099,352.678 252.731 C 353.003 252.363,353.368 251.313,353.491 250.397 C 353.614 249.480,353.958 248.638,354.255 248.524 C 354.552 248.409,354.696 248.155,354.574 247.958 C 354.452 247.761,354.563 247.600,354.820 247.600 C 355.108 247.600,355.198 247.246,355.054 246.674 C 354.925 246.160,355.069 245.393,355.378 244.953 C 355.684 244.516,356.062 243.448,356.218 242.580 C 356.374 241.711,356.756 240.708,357.067 240.350 C 357.379 239.993,357.596 239.543,357.551 239.350 C 357.469 239.001,357.875 237.136,358.281 236.000 C 358.399 235.670,358.544 234.889,358.604 234.264 C 358.664 233.639,358.912 232.928,359.156 232.684 C 359.400 232.440,359.600 231.477,359.600 230.544 C 359.600 229.611,359.780 228.736,360.000 228.600 C 360.220 228.464,360.400 227.823,360.400 227.176 C 360.400 226.529,360.569 226.000,360.775 226.000 C 360.981 226.000,361.052 225.398,360.933 224.662 C 360.797 223.826,360.958 222.856,361.361 222.075 C 361.731 221.361,362.118 219.265,362.266 217.175 C 362.430 214.867,362.796 212.991,363.263 212.077 C 363.831 210.962,364.000 209.730,364.000 206.696 C 364.000 203.844,364.179 202.414,364.651 201.502 C 365.166 200.505,365.329 198.702,365.433 192.822 C 365.505 188.740,365.670 184.499,365.799 183.397 C 366.412 178.158,366.326 94.630,365.706 92.680 C 365.295 91.390,365.176 90.063,365.344 88.639 C 365.556 86.836,365.474 86.410,364.797 85.797 C 364.318 85.364,364.000 84.566,364.000 83.800 C 364.000 83.032,363.682 82.236,363.200 81.800 C 362.753 81.396,362.400 80.568,362.400 79.925 C 362.400 79.293,362.143 78.676,361.828 78.555 C 361.513 78.435,361.063 77.782,360.827 77.106 C 360.591 76.430,359.856 75.139,359.193 74.238 C 358.530 73.337,357.310 71.668,356.483 70.529 C 355.121 68.655,351.307 65.200,350.600 65.200 C 350.443 65.200,349.410 64.480,348.305 63.600 C 347.200 62.720,346.071 62.000,345.797 62.000 C 345.522 62.000,345.074 61.730,344.800 61.400 C 344.526 61.070,343.902 60.800,343.413 60.800 C 342.924 60.800,342.198 60.440,341.800 60.000 C 341.361 59.515,340.568 59.200,339.787 59.200 C 339.078 59.200,338.273 58.928,337.997 58.596 C 337.722 58.264,336.803 57.882,335.956 57.747 C 335.108 57.611,334.210 57.253,333.959 56.950 C 333.707 56.648,333.008 56.400,332.405 56.400 C 331.802 56.400,330.850 56.040,330.291 55.600 C 329.731 55.160,328.672 54.796,327.937 54.791 C 327.202 54.786,326.150 54.430,325.600 54.000 C 325.005 53.534,323.953 53.209,323.000 53.196 C 322.120 53.184,321.051 52.910,320.624 52.587 C 320.196 52.264,319.186 52.000,318.377 52.000 C 317.514 52.000,316.489 51.670,315.891 51.200 C 315.319 50.750,314.268 50.400,313.491 50.400 C 312.714 50.400,311.662 50.050,311.091 49.600 C 310.403 49.059,309.468 48.800,308.200 48.800 C 306.932 48.800,305.997 48.541,305.309 48.000 C 304.592 47.436,303.686 47.200,302.235 47.200 C 301.104 47.200,299.823 46.953,299.389 46.652 C 298.955 46.351,297.482 46.025,296.115 45.928 C 294.551 45.817,293.353 45.501,292.883 45.076 C 292.397 44.635,291.452 44.399,290.169 44.397 C 288.877 44.396,287.787 44.121,287.000 43.600 C 286.094 43.000,285.121 42.805,283.031 42.803 C 281.000 42.801,280.065 42.621,279.519 42.126 C 278.974 41.633,277.942 41.433,275.671 41.380 C 273.710 41.334,272.104 41.067,271.304 40.654 C 270.392 40.182,268.972 40.000,266.210 40.000 C 263.405 40.000,261.771 39.786,260.104 39.200 C 258.643 38.687,256.802 38.400,254.966 38.400 C 253.206 38.400,251.140 38.092,249.600 37.600 C 247.528 36.938,245.983 36.799,240.648 36.794 C 236.480 36.790,233.344 36.586,231.780 36.217 C 230.194 35.843,225.989 35.578,219.580 35.448 C 214.201 35.338,205.750 35.125,200.800 34.973 C 195.850 34.821,191.691 34.814,191.558 34.957 M218.200 98.798 C 246.437 106.422,257.184 139.481,238.616 161.600 C 237.785 162.590,235.113 165.526,232.678 168.125 C 230.242 170.724,227.911 173.244,227.496 173.725 C 227.081 174.206,225.450 175.951,223.871 177.602 C 222.292 179.254,219.930 181.774,218.622 183.202 C 216.372 185.660,211.385 190.907,204.272 198.300 C 200.289 202.439,200.651 202.488,194.556 197.000 C 194.311 196.780,193.501 196.068,192.756 195.417 C 190.128 193.124,175.792 180.219,175.200 179.613 C 174.870 179.276,173.790 178.298,172.800 177.441 C 171.038 175.915,169.030 174.088,164.200 169.619 C 160.312 166.022,154.324 160.621,152.601 159.158 C 149.130 156.210,144.000 151.033,144.000 150.477 C 144.000 149.852,145.277 148.364,150.768 142.594 C 152.656 140.610,156.630 136.384,159.600 133.201 C 162.570 130.019,166.440 125.881,168.200 124.005 C 169.960 122.130,173.096 118.707,175.168 116.398 C 185.067 105.369,189.553 101.811,196.600 99.399 C 202.463 97.393,212.011 97.127,218.200 98.798 M198.628 111.007 C 194.302 112.504,192.126 114.310,183.497 123.569 C 179.072 128.316,172.200 135.594,168.226 139.743 C 159.237 149.126,158.815 149.895,161.499 152.006 C 163.764 153.788,164.003 153.617,172.998 143.775 C 175.197 141.369,178.729 137.600,180.846 135.400 C 182.962 133.200,185.659 130.320,186.839 129.000 C 195.814 118.957,198.626 117.472,205.362 119.218 C 210.123 120.452,211.663 119.561,211.724 115.540 C 211.799 110.512,205.928 108.479,198.628 111.007 M141.839 160.279 C 143.578 161.752,145.270 163.239,145.600 163.582 C 146.468 164.485,155.480 172.745,157.600 174.581 C 158.590 175.438,161.020 177.607,163.000 179.400 C 169.602 185.378,176.558 191.703,180.600 195.401 C 182.800 197.414,186.670 200.951,189.200 203.262 C 194.743 208.325,194.816 208.548,191.943 211.600 C 190.804 212.810,188.595 215.150,187.036 216.800 C 185.476 218.450,182.130 222.050,179.600 224.800 C 172.973 232.005,164.509 240.964,156.800 248.936 C 145.403 260.720,131.528 264.688,117.619 260.141 C 90.438 251.254,81.112 218.870,99.744 198.074 C 101.871 195.700,110.959 185.849,112.000 184.789 C 114.016 182.737,119.534 176.824,122.607 173.425 C 133.068 161.850,137.202 157.600,137.998 157.600 C 138.372 157.600,140.100 158.805,141.839 160.279 M301.981 199.791 C 305.768 201.709,308.388 206.360,307.859 210.221 C 307.362 213.850,306.476 215.069,297.849 224.000 C 295.830 226.090,291.397 230.860,287.999 234.600 C 284.600 238.340,280.805 242.480,279.565 243.800 C 278.325 245.120,274.817 248.990,271.770 252.400 C 268.723 255.810,266.133 258.690,266.015 258.800 C 265.897 258.910,265.094 259.810,264.230 260.800 C 262.403 262.895,255.290 270.752,245.801 281.155 C 243.760 283.392,243.963 283.165,240.205 287.400 C 234.133 294.241,232.464 295.330,228.000 295.361 C 223.586 295.393,223.105 295.027,211.200 282.580 C 208.670 279.934,204.350 275.430,201.600 272.570 C 187.891 258.313,188.018 258.485,188.018 254.200 C 188.018 248.077,192.756 243.420,199.000 243.407 C 203.495 243.397,203.722 243.569,216.536 256.640 C 222.660 262.888,227.895 268.000,228.167 268.000 C 228.440 268.000,229.638 266.875,230.830 265.500 C 233.216 262.748,235.732 259.967,239.425 256.003 C 240.759 254.571,242.919 252.239,244.225 250.819 C 246.893 247.920,247.242 247.544,250.582 243.958 C 251.892 242.551,254.053 240.230,255.384 238.800 C 256.715 237.370,259.528 234.310,261.634 232.000 C 270.664 222.097,275.454 216.860,277.366 214.800 C 284.007 207.645,288.372 202.884,289.039 202.069 C 291.872 198.603,297.636 197.589,301.981 199.791 " stroke="none" fill="#87bb56" fill-rule="evenodd"></path><path id="path1" d="M200.800 99.264 C 189.950 102.230,186.889 104.473,175.000 118.173 C 174.154 119.148,166.967 126.826,156.800 137.617 C 153.390 141.236,149.520 145.368,148.200 146.799 C 146.880 148.229,145.665 149.460,145.500 149.533 C 144.448 150.001,145.777 151.643,151.100 156.455 C 154.345 159.389,158.984 163.591,161.410 165.794 C 163.835 167.997,167.610 171.420,169.799 173.400 C 171.988 175.380,175.765 178.800,178.193 181.000 C 180.621 183.200,184.225 186.439,186.204 188.198 C 188.182 189.957,189.890 191.487,190.000 191.598 C 190.110 191.709,191.820 193.240,193.800 194.999 C 195.780 196.759,198.030 198.782,198.800 199.496 C 200.579 201.144,200.252 201.248,203.213 198.100 C 204.611 196.615,207.108 193.960,208.762 192.200 C 210.417 190.440,213.402 187.290,215.395 185.200 C 217.388 183.110,221.355 178.882,224.210 175.805 C 227.064 172.728,230.674 168.858,232.231 167.205 C 242.090 156.738,244.496 152.575,246.222 143.000 C 249.155 126.729,240.206 109.283,225.413 102.434 C 221.790 100.757,220.997 100.500,216.000 99.382 C 213.053 98.722,203.065 98.645,200.800 99.264 M209.322 109.790 C 215.857 112.891,212.868 122.514,206.016 120.432 C 199.555 118.470,196.263 119.920,189.240 127.820 C 188.272 128.909,184.485 132.950,180.824 136.800 C 177.164 140.650,173.186 144.878,171.984 146.195 C 164.686 154.199,163.471 154.936,160.947 152.891 C 157.433 150.045,158.133 148.617,167.949 138.600 C 171.183 135.300,176.241 129.990,179.190 126.800 C 187.451 117.860,192.806 112.658,195.000 111.439 C 199.529 108.922,205.937 108.184,209.322 109.790 M135.988 160.300 C 135.045 161.345,133.081 163.460,131.623 165.000 C 130.166 166.540,127.102 169.870,124.815 172.400 C 119.308 178.490,115.296 182.809,102.400 196.525 C 87.981 211.862,87.212 232.185,100.450 248.053 C 109.352 258.724,126.823 263.550,140.118 259.011 C 147.787 256.392,150.749 254.129,161.591 242.600 C 163.453 240.620,166.872 237.014,169.188 234.586 C 171.505 232.159,174.210 229.277,175.200 228.183 C 178.710 224.303,187.032 215.356,189.995 212.278 C 191.648 210.561,193.049 209.018,193.109 208.850 C 193.254 208.445,187.214 202.649,177.426 193.800 C 173.046 189.840,169.268 186.417,169.031 186.193 C 168.794 185.970,165.000 182.566,160.600 178.631 C 156.200 174.695,150.530 169.554,148.000 167.206 C 145.470 164.858,142.594 162.231,141.608 161.368 C 140.622 160.506,139.463 159.485,139.032 159.100 C 137.958 158.140,137.924 158.153,135.988 160.300 M293.000 200.355 C 291.071 201.244,289.754 202.617,268.197 226.200 C 260.958 234.120,254.757 240.872,254.417 241.203 C 254.078 241.535,252.820 242.885,251.622 244.203 C 250.424 245.522,248.174 247.950,246.622 249.600 C 245.070 251.251,240.404 256.336,236.253 260.900 C 232.102 265.465,228.409 269.200,228.045 269.200 C 227.681 269.200,225.521 267.265,223.245 264.900 C 204.404 245.320,203.200 244.288,199.207 244.274 C 193.381 244.254,189.019 248.589,189.015 254.400 C 189.012 258.339,188.702 257.947,205.614 275.400 C 208.812 278.700,213.041 283.110,215.011 285.200 C 222.852 293.518,224.110 294.400,228.131 294.400 C 231.582 294.400,233.471 293.304,237.348 289.051 C 239.179 287.043,242.806 283.060,245.409 280.200 C 248.011 277.340,251.616 273.380,253.419 271.400 C 255.222 269.420,259.359 264.830,262.611 261.200 C 265.863 257.570,269.261 253.790,270.163 252.800 C 271.064 251.810,273.421 249.200,275.401 247.000 C 277.380 244.800,279.090 242.910,279.200 242.800 C 279.310 242.690,280.300 241.608,281.400 240.395 C 285.156 236.254,292.595 228.209,295.636 225.002 C 306.426 213.619,306.800 213.090,306.800 209.200 C 306.800 202.285,299.276 197.463,293.000 200.355 " stroke="none" fill="#8ac4e3" fill-rule="evenodd"></path><path id="path2" d="M186.083 31.872 C 182.229 31.992,181.117 32.152,180.940 32.612 C 180.750 33.106,179.193 33.200,171.157 33.200 C 162.133 33.200,161.555 33.245,160.800 34.000 C 160.065 34.735,159.467 34.800,153.403 34.800 C 147.240 34.800,146.774 34.853,146.307 35.600 C 145.852 36.329,145.374 36.400,140.947 36.400 C 136.995 36.400,136.043 36.512,135.855 37.000 C 135.671 37.481,134.788 37.600,131.413 37.600 C 127.733 37.600,127.099 37.701,126.400 38.400 C 125.717 39.083,125.067 39.200,121.963 39.200 C 118.662 39.200,118.306 39.274,118.116 40.000 C 117.929 40.716,117.570 40.800,114.716 40.800 C 111.862 40.800,111.503 40.884,111.316 41.600 C 111.132 42.302,110.770 42.400,108.373 42.400 C 106.425 42.400,105.548 42.564,105.320 42.969 C 104.973 43.587,100.114 43.965,99.266 43.441 C 99.010 43.282,98.620 43.264,98.400 43.400 C 97.757 43.798,97.939 44.726,98.700 44.924 C 99.085 45.025,98.290 45.128,96.933 45.154 C 94.080 45.207,93.200 45.464,93.200 46.243 C 93.200 46.667,92.521 46.800,90.363 46.800 C 87.806 46.800,87.503 46.884,87.303 47.649 C 87.097 48.437,86.880 48.485,84.340 48.303 C 81.706 48.114,80.321 48.807,82.300 49.324 C 82.685 49.425,82.070 49.528,80.933 49.554 C 78.466 49.609,77.600 49.892,77.600 50.643 C 77.600 51.044,77.046 51.200,75.623 51.200 C 74.055 51.200,73.521 51.377,73.045 52.058 C 72.507 52.825,72.206 52.887,70.176 52.649 L 67.909 52.382 68.177 53.450 L 68.445 54.519 65.976 54.261 C 63.598 54.012,63.516 54.034,63.730 54.855 C 63.944 55.671,63.852 55.698,61.536 55.488 C 59.151 55.271,59.122 55.281,59.304 56.234 C 59.471 57.105,59.352 57.200,58.107 57.200 C 57.062 57.200,56.674 57.395,56.516 58.000 C 56.367 58.569,55.970 58.800,55.141 58.800 C 54.500 58.800,53.878 59.052,53.760 59.361 C 53.473 60.107,51.969 60.472,51.338 59.949 C 50.654 59.381,49.887 59.924,50.119 60.813 C 50.253 61.324,50.029 61.607,49.354 61.776 C 48.829 61.907,48.400 62.302,48.400 62.652 C 48.400 63.163,48.124 63.237,47.000 63.026 C 45.568 62.758,44.822 64.012,46.100 64.540 C 46.375 64.653,45.987 64.640,45.237 64.510 C 44.014 64.299,43.896 64.358,44.086 65.087 C 44.259 65.745,44.146 65.859,43.491 65.687 C 42.809 65.509,42.713 65.631,42.873 66.469 C 43.040 67.345,42.946 67.440,42.074 67.274 C 41.203 67.107,41.107 67.203,41.274 68.074 C 41.439 68.938,41.342 69.040,40.504 68.879 C 39.597 68.706,39.559 68.776,39.817 70.148 C 40.000 71.123,39.940 71.600,39.636 71.600 C 39.387 71.600,38.988 72.028,38.749 72.552 C 38.442 73.227,38.086 73.443,37.525 73.296 C 36.797 73.106,36.756 73.232,37.004 74.888 C 37.245 76.494,37.184 76.711,36.437 76.906 C 35.814 77.069,35.600 77.443,35.600 78.370 C 35.600 79.487,35.500 79.590,34.635 79.373 C 33.679 79.133,33.672 79.153,33.886 81.514 C 34.073 83.581,33.989 84.011,33.251 84.749 C 32.508 85.492,32.400 86.061,32.400 89.229 C 32.400 91.921,32.245 93.012,31.800 93.457 C 30.902 94.355,30.915 176.189,31.813 177.376 C 32.296 178.015,32.401 180.109,32.405 189.176 C 32.411 200.628,32.523 202.000,33.447 202.000 C 33.893 202.000,34.000 203.158,34.000 207.997 C 34.000 213.560,34.058 214.029,34.800 214.493 C 35.488 214.923,35.600 215.426,35.600 218.093 C 35.600 220.760,35.712 221.263,36.400 221.693 C 37.106 222.134,37.200 222.626,37.200 225.896 C 37.200 228.827,37.318 229.600,37.767 229.600 C 38.383 229.600,38.883 235.105,38.300 235.463 C 38.135 235.564,38.000 235.907,38.000 236.224 C 38.000 236.930,39.455 236.994,39.735 236.300 C 39.846 236.025,39.951 236.829,39.968 238.086 C 39.994 239.943,40.150 240.452,40.800 240.800 C 41.398 241.120,41.600 241.638,41.600 242.852 C 41.600 244.138,41.766 244.518,42.400 244.684 C 43.095 244.866,43.200 245.230,43.200 247.447 C 43.200 249.546,43.317 250.000,43.856 250.000 C 44.414 250.000,44.479 250.354,44.293 252.400 C 44.076 254.798,45.195 256.127,45.724 254.100 C 45.825 253.715,45.928 254.245,45.954 255.277 C 45.989 256.708,46.203 257.297,46.855 257.753 C 47.612 258.284,47.678 258.589,47.434 260.428 C 47.178 262.355,47.215 262.489,47.939 262.300 C 48.551 262.140,48.770 262.349,48.954 263.271 C 49.084 263.918,49.462 264.719,49.795 265.052 C 50.128 265.385,50.400 266.111,50.400 266.666 C 50.400 267.338,50.667 267.745,51.200 267.884 C 51.801 268.041,52.000 268.430,52.000 269.443 C 52.000 270.360,52.257 270.954,52.800 271.293 C 53.240 271.568,53.600 272.205,53.600 272.709 C 53.600 273.213,53.849 273.721,54.153 273.837 C 54.457 273.954,54.820 274.765,54.960 275.640 C 55.100 276.515,55.479 277.332,55.803 277.457 C 56.181 277.602,56.358 278.133,56.296 278.941 C 56.211 280.052,56.312 280.188,57.152 280.096 C 58.050 279.997,58.089 280.082,57.847 281.596 C 57.589 283.207,58.775 284.087,59.335 282.700 C 59.446 282.425,59.551 282.676,59.568 283.257 C 59.586 283.839,59.890 284.426,60.244 284.561 C 60.747 284.755,60.828 285.125,60.616 286.256 C 60.353 287.655,60.380 287.697,61.402 287.502 C 62.421 287.307,62.454 287.359,62.330 288.941 C 62.192 290.690,63.318 291.643,63.727 290.123 C 63.834 289.725,63.894 290.030,63.861 290.800 C 63.807 292.028,63.910 292.188,64.700 292.105 C 65.418 292.029,65.600 292.211,65.600 293.005 C 65.600 293.641,65.826 294.000,66.226 294.000 C 66.690 294.000,66.819 294.334,66.726 295.300 C 66.617 296.426,66.720 296.596,67.500 296.568 C 68.132 296.546,68.400 296.765,68.400 297.306 C 68.400 297.741,68.751 298.167,69.209 298.286 C 69.897 298.466,69.978 298.709,69.754 299.906 C 69.504 301.239,69.542 301.304,70.476 301.126 C 71.345 300.960,71.440 301.055,71.273 301.931 C 71.112 302.771,71.208 302.891,71.899 302.710 C 72.490 302.556,72.836 302.760,73.149 303.448 C 73.388 303.972,73.787 304.400,74.036 304.400 C 74.337 304.400,74.401 304.869,74.226 305.800 C 73.938 307.336,75.320 307.974,75.742 306.500 C 75.852 306.115,75.841 306.501,75.716 307.357 C 75.499 308.847,75.533 308.906,76.490 308.723 C 77.332 308.562,77.458 308.658,77.282 309.329 C 77.111 309.982,77.227 310.086,77.923 309.904 C 78.527 309.746,78.842 309.901,79.013 310.441 C 79.146 310.858,79.512 311.200,79.827 311.200 C 80.142 311.200,80.400 311.455,80.400 311.767 C 80.400 312.079,81.125 313.090,82.012 314.012 C 83.261 315.312,83.523 315.811,83.177 316.227 C 82.598 316.925,83.097 317.720,83.971 317.492 C 84.457 317.365,84.644 317.554,84.626 318.157 C 84.607 318.763,84.837 318.993,85.443 318.974 C 86.064 318.955,86.237 319.139,86.098 319.669 C 85.859 320.581,87.130 321.144,87.653 320.358 C 87.900 319.987,87.934 320.188,87.754 320.958 C 87.495 322.069,87.531 322.105,88.642 321.846 C 89.412 321.666,89.613 321.700,89.242 321.947 C 88.456 322.470,89.019 323.741,89.931 323.502 C 90.461 323.363,90.645 323.536,90.626 324.157 C 90.607 324.763,90.837 324.993,91.443 324.974 C 92.064 324.955,92.237 325.139,92.098 325.669 C 91.859 326.581,93.130 327.144,93.653 326.358 C 93.900 325.987,93.934 326.188,93.754 326.958 C 93.495 328.069,93.531 328.105,94.642 327.846 C 95.412 327.666,95.613 327.700,95.242 327.947 C 94.456 328.470,95.019 329.741,95.931 329.502 C 96.461 329.363,96.645 329.536,96.626 330.157 C 96.607 330.763,96.837 330.993,97.443 330.974 C 98.064 330.955,98.237 331.139,98.098 331.669 C 97.859 332.581,99.130 333.144,99.653 332.358 C 99.900 331.987,99.934 332.188,99.754 332.958 C 99.495 334.069,99.531 334.105,100.642 333.846 C 101.412 333.666,101.613 333.700,101.242 333.947 C 100.456 334.470,101.019 335.741,101.931 335.502 C 102.461 335.363,102.645 335.536,102.626 336.157 C 102.604 336.864,102.801 336.981,103.850 336.881 C 104.690 336.801,105.178 336.965,105.337 337.381 C 105.468 337.722,105.842 338.000,106.169 338.000 C 107.216 338.000,108.757 339.877,108.505 340.843 C 108.307 341.599,108.410 341.691,109.269 341.527 C 110.145 341.360,110.240 341.454,110.074 342.326 C 109.904 343.216,109.988 343.290,110.904 343.060 C 111.795 342.836,111.896 342.911,111.704 343.646 C 111.510 344.386,111.625 344.467,112.642 344.307 C 113.279 344.206,113.575 344.199,113.300 344.291 C 111.982 344.732,112.780 346.093,114.200 345.826 C 115.317 345.617,115.600 345.691,115.600 346.192 C 115.600 346.571,116.079 346.916,116.806 347.061 C 117.753 347.251,117.918 347.417,117.572 347.834 C 116.990 348.535,117.505 349.318,118.394 349.086 C 118.939 348.943,119.050 349.086,118.886 349.713 C 118.696 350.442,118.814 350.501,120.037 350.290 C 120.787 350.160,121.175 350.147,120.900 350.260 C 119.657 350.773,120.361 352.044,121.744 351.784 C 122.883 351.570,123.122 351.659,123.307 352.366 C 123.433 352.847,123.851 353.200,124.294 353.200 C 124.835 353.200,125.054 353.468,125.032 354.100 C 125.008 354.766,125.219 354.993,125.843 354.974 C 126.488 354.955,126.638 355.133,126.482 355.730 C 126.298 356.432,126.425 356.484,127.708 356.244 C 129.321 355.941,131.000 357.152,131.000 358.618 C 131.000 359.257,131.257 359.389,132.400 359.339 C 133.170 359.306,133.485 359.364,133.100 359.469 C 132.330 359.678,132.160 360.604,132.818 361.011 C 133.047 361.153,133.452 361.094,133.718 360.881 C 134.245 360.456,135.754 360.879,136.183 361.572 C 136.328 361.807,136.842 362.005,137.324 362.012 C 138.111 362.023,138.129 362.066,137.500 362.432 C 136.028 363.289,136.665 364.069,138.600 363.779 C 140.067 363.559,140.400 363.622,140.400 364.121 C 140.400 364.458,140.895 364.914,141.500 365.135 C 142.193 365.388,142.341 365.549,141.900 365.568 C 141.129 365.603,140.947 366.597,141.635 367.022 C 141.874 367.169,142.270 367.090,142.515 366.845 C 143.460 365.900,144.839 366.304,144.553 367.444 C 144.304 368.435,144.353 368.474,145.518 368.218 C 146.510 368.000,146.829 368.106,147.186 368.774 C 147.429 369.228,147.951 369.600,148.346 369.600 C 148.833 369.600,149.053 369.889,149.032 370.500 C 149.003 371.301,149.165 371.386,150.501 371.269 C 151.585 371.174,152.068 371.312,152.243 371.769 C 152.377 372.116,152.862 372.400,153.323 372.400 C 153.974 372.400,154.053 372.507,153.680 372.880 C 152.620 373.940,153.126 374.460,154.952 374.186 C 156.693 373.925,156.702 373.931,156.494 375.020 C 156.300 376.035,156.362 376.096,157.336 375.852 C 158.104 375.659,158.606 375.806,159.194 376.394 C 159.637 376.837,160.253 377.200,160.563 377.200 C 160.940 377.200,161.052 377.481,160.901 378.056 C 160.693 378.852,160.783 378.892,162.183 378.630 C 163.440 378.394,163.783 378.483,164.267 379.174 C 164.629 379.691,165.286 380.000,166.023 380.000 C 166.778 380.000,167.200 380.205,167.200 380.573 C 167.200 380.888,167.605 381.271,168.100 381.423 C 168.595 381.575,169.322 382.037,169.716 382.450 C 170.109 382.862,170.874 383.200,171.416 383.200 C 172.024 383.200,172.400 383.429,172.400 383.800 C 172.400 384.221,172.847 384.409,173.900 384.432 C 174.725 384.449,175.175 384.554,174.900 384.665 C 173.411 385.266,174.416 386.383,176.222 386.135 C 177.792 385.920,178.128 386.004,178.645 386.743 C 178.975 387.214,179.676 387.600,180.203 387.600 C 180.729 387.600,181.315 387.876,181.503 388.213 C 181.692 388.550,182.556 388.937,183.423 389.073 C 184.290 389.210,185.144 389.564,185.320 389.861 C 185.500 390.164,186.312 390.400,187.173 390.400 C 188.370 390.400,188.753 390.575,188.916 391.200 C 189.095 391.885,189.462 392.000,191.474 392.000 C 193.327 392.000,193.967 392.169,194.507 392.800 C 195.546 394.013,204.135 394.013,204.893 392.800 C 205.305 392.140,205.826 392.000,207.874 392.000 C 209.957 392.000,210.451 391.862,210.955 391.143 C 211.472 390.404,211.808 390.320,213.378 390.535 C 215.149 390.778,216.082 390.023,214.700 389.465 C 214.425 389.354,214.785 389.249,215.500 389.232 C 216.232 389.214,217.150 388.850,217.600 388.400 C 218.040 387.960,218.822 387.600,219.338 387.600 C 219.854 387.600,220.619 387.221,221.038 386.757 C 221.678 386.048,222.104 385.949,223.700 386.138 C 225.577 386.360,226.609 385.274,225.100 384.665 C 224.825 384.554,225.084 384.449,225.676 384.432 C 226.268 384.414,226.866 384.217,227.004 383.994 C 227.142 383.771,227.872 383.330,228.627 383.014 C 229.382 382.699,230.000 382.229,230.000 381.969 C 230.000 381.641,230.500 381.578,231.649 381.761 C 233.264 382.020,233.294 382.004,233.096 380.969 C 232.901 379.946,232.942 379.920,234.423 380.157 C 236.135 380.431,236.762 379.918,235.935 378.922 C 235.454 378.342,235.586 378.307,237.301 378.564 C 239.220 378.852,240.237 377.930,238.500 377.476 C 237.964 377.336,238.007 377.282,238.684 377.246 C 239.171 377.221,239.921 376.822,240.351 376.361 C 240.973 375.693,241.396 375.579,242.421 375.805 C 243.656 376.076,243.701 376.042,243.503 375.006 C 243.297 373.930,243.306 373.925,245.100 374.194 C 246.885 374.462,246.900 374.454,246.644 373.432 C 246.417 372.527,246.509 372.400,247.392 372.400 C 248.040 372.400,248.400 372.176,248.400 371.774 C 248.400 371.310,248.734 371.181,249.700 371.274 C 250.842 371.385,250.996 371.286,250.964 370.459 C 250.930 369.590,251.044 369.537,252.440 369.760 C 254.187 370.039,254.923 369.371,253.785 368.539 C 253.082 368.025,253.087 368.000,253.904 368.000 C 254.375 368.000,254.904 367.761,255.080 367.470 C 255.560 366.675,256.831 366.328,257.433 366.828 C 257.726 367.070,258.153 367.153,258.382 367.011 C 258.957 366.656,258.907 365.713,258.300 365.449 C 258.025 365.330,258.321 365.341,258.958 365.474 C 260.045 365.701,260.103 365.649,259.906 364.620 C 259.698 363.531,259.707 363.525,261.448 363.786 C 263.337 364.070,263.952 363.278,262.500 362.432 C 261.871 362.066,261.889 362.023,262.676 362.012 C 263.158 362.005,263.672 361.807,263.817 361.572 C 264.246 360.879,265.755 360.456,266.282 360.881 C 266.548 361.094,266.953 361.153,267.182 361.011 C 267.840 360.604,267.670 359.678,266.900 359.469 C 266.515 359.364,266.830 359.306,267.600 359.339 C 268.799 359.391,268.996 359.275,268.971 358.526 C 268.951 357.931,269.239 357.576,269.871 357.418 C 270.382 357.290,270.800 356.910,270.800 356.574 C 270.800 356.088,271.098 356.020,272.261 356.238 C 273.577 356.485,273.702 356.434,273.518 355.730 C 273.362 355.133,273.512 354.955,274.157 354.974 C 274.781 354.993,274.992 354.766,274.968 354.100 C 274.946 353.468,275.165 353.200,275.706 353.200 C 276.149 353.200,276.567 352.847,276.693 352.366 C 276.878 351.659,277.117 351.570,278.256 351.784 C 279.745 352.063,280.334 350.669,278.900 350.258 C 278.515 350.148,278.903 350.160,279.761 350.285 C 281.179 350.491,281.303 350.438,281.112 349.707 C 280.950 349.086,281.063 348.944,281.606 349.086 C 282.495 349.318,283.010 348.535,282.428 347.834 C 282.082 347.417,282.247 347.251,283.194 347.061 C 283.921 346.916,284.400 346.571,284.400 346.192 C 284.400 345.691,284.683 345.617,285.800 345.826 C 287.220 346.093,288.018 344.732,286.700 344.291 C 286.425 344.199,286.721 344.206,287.358 344.307 C 288.375 344.467,288.490 344.386,288.296 343.646 C 288.105 342.915,288.207 342.837,289.073 343.054 C 289.944 343.273,290.052 343.187,289.935 342.367 C 289.789 341.353,291.227 339.600,292.204 339.600 C 292.516 339.600,292.962 339.245,293.194 338.812 C 293.522 338.198,293.880 338.076,294.808 338.262 C 295.739 338.448,296.000 338.358,296.000 337.850 C 296.000 337.493,295.685 337.197,295.300 337.194 C 294.703 337.189,294.688 337.132,295.200 336.807 C 295.582 336.564,295.848 336.566,295.933 336.813 C 296.147 337.433,297.202 337.259,297.471 336.560 C 297.606 336.207,297.465 335.752,297.158 335.547 C 296.781 335.296,296.956 335.258,297.696 335.430 C 298.950 335.721,299.748 334.607,298.758 333.947 C 298.387 333.700,298.588 333.666,299.358 333.846 C 300.469 334.105,300.505 334.069,300.246 332.958 C 300.066 332.188,300.100 331.987,300.347 332.358 C 300.870 333.144,302.141 332.581,301.902 331.669 C 301.763 331.139,301.936 330.955,302.557 330.974 C 303.163 330.993,303.393 330.763,303.374 330.157 C 303.355 329.536,303.539 329.363,304.069 329.502 C 304.981 329.741,305.544 328.470,304.758 327.947 C 304.387 327.700,304.588 327.666,305.358 327.846 C 306.442 328.099,306.500 328.051,306.261 327.100 C 305.994 326.035,306.827 325.322,307.704 325.864 C 307.975 326.032,308.044 325.891,307.888 325.486 C 307.706 325.010,307.811 324.906,308.290 325.090 C 308.772 325.275,308.874 325.170,308.687 324.682 C 308.396 323.924,309.083 323.368,310.103 323.536 C 310.996 323.683,311.506 322.446,310.758 321.947 C 310.388 321.701,310.590 321.667,311.362 321.847 C 312.379 322.084,312.499 322.020,312.319 321.333 C 312.162 320.733,312.311 320.555,312.957 320.574 C 313.557 320.593,313.793 320.362,313.776 319.776 C 313.760 319.197,313.997 318.960,314.576 318.976 C 315.162 318.993,315.393 318.757,315.374 318.157 C 315.356 317.554,315.543 317.365,316.029 317.492 C 316.942 317.730,317.392 316.913,316.765 316.157 C 316.327 315.630,316.410 315.587,317.388 315.833 C 318.441 316.097,318.499 316.049,318.262 315.104 C 318.058 314.293,318.324 313.747,319.604 312.346 C 320.482 311.386,321.200 310.465,321.200 310.300 C 321.200 309.527,322.792 308.473,323.629 308.692 C 324.401 308.893,324.492 308.794,324.327 307.931 C 324.160 307.055,324.255 306.960,325.124 307.126 C 326.064 307.306,326.100 307.242,325.884 305.757 C 325.759 304.901,325.748 304.515,325.858 304.900 C 326.275 306.354,327.663 305.740,327.379 304.227 C 327.032 302.381,328.164 300.746,329.555 301.083 C 330.464 301.303,330.500 301.239,330.284 299.757 C 330.159 298.901,330.148 298.515,330.258 298.900 C 330.673 300.347,332.063 299.742,331.781 298.237 C 331.486 296.666,332.816 294.914,334.135 295.138 C 334.795 295.249,334.850 295.080,334.612 293.668 C 334.377 292.279,334.449 292.038,335.171 291.809 C 335.627 291.664,336.000 291.319,336.000 291.041 C 336.000 290.764,336.405 290.551,336.900 290.568 C 337.717 290.597,337.788 290.444,337.666 288.900 C 337.562 287.595,337.671 287.200,338.132 287.200 C 338.463 287.200,338.914 286.705,339.135 286.100 C 339.388 285.407,339.549 285.259,339.568 285.700 C 339.586 286.085,339.881 286.400,340.225 286.400 C 340.735 286.400,340.801 286.081,340.586 284.648 C 340.328 282.924,340.340 282.899,341.374 283.097 C 342.403 283.294,342.420 283.263,342.161 281.645 C 341.910 280.078,341.946 279.997,342.848 280.096 C 343.734 280.193,343.791 280.083,343.673 278.500 C 343.574 277.177,343.683 276.800,344.165 276.800 C 344.506 276.800,344.896 276.357,345.032 275.816 C 345.167 275.275,345.531 274.623,345.839 274.367 C 346.148 274.111,346.400 273.405,346.400 272.798 C 346.400 272.030,346.644 271.630,347.200 271.484 C 347.799 271.327,348.000 270.938,348.000 269.934 C 348.000 269.026,348.258 268.431,348.800 268.093 C 349.352 267.748,349.600 267.160,349.600 266.197 C 349.600 265.241,349.784 264.800,350.182 264.800 C 350.526 264.800,350.867 264.248,351.018 263.447 C 351.223 262.351,351.421 262.133,352.056 262.299 C 352.784 262.489,352.822 262.357,352.574 260.491 C 352.337 258.703,352.402 258.427,353.154 258.025 C 353.797 257.681,354.000 257.191,354.000 255.986 C 354.000 254.897,354.175 254.400,354.557 254.400 C 355.277 254.400,355.600 253.522,355.600 251.567 C 355.600 250.441,355.769 250.000,356.200 250.000 C 356.643 250.000,356.800 249.536,356.800 248.227 C 356.800 246.805,356.959 246.404,357.600 246.200 C 358.268 245.988,358.408 245.572,358.446 243.673 C 358.472 242.423,358.575 241.715,358.676 242.100 C 359.250 244.298,360.290 242.757,360.093 240.000 C 359.926 237.668,359.995 237.200,360.503 237.200 C 361.355 237.200,361.600 236.340,361.600 233.355 C 361.600 231.431,361.752 230.716,362.200 230.545 C 362.663 230.367,362.800 229.596,362.800 227.171 C 362.800 224.438,362.904 223.972,363.600 223.600 C 364.313 223.218,364.400 222.762,364.400 219.386 C 364.400 216.417,364.520 215.600,364.957 215.600 C 365.827 215.600,366.000 214.662,366.000 209.930 C 366.000 206.132,366.110 205.386,366.800 204.509 C 367.523 203.590,367.600 202.886,367.600 197.223 C 367.600 192.329,367.729 190.782,368.187 190.176 C 369.087 188.987,369.099 90.890,368.200 90.545 C 367.748 90.371,367.600 89.643,367.600 87.590 C 367.600 84.460,367.363 83.600,366.501 83.600 C 365.996 83.600,365.929 83.207,366.119 81.363 L 366.350 79.126 365.320 79.384 C 364.309 79.638,364.296 79.613,364.558 77.972 C 364.820 76.335,364.804 76.306,363.774 76.503 C 362.738 76.701,362.727 76.680,362.991 74.922 C 363.229 73.331,363.178 73.153,362.515 73.266 C 361.141 73.499,359.865 71.845,360.169 70.225 C 360.442 68.771,359.194 68.006,358.660 69.300 C 358.547 69.575,358.560 69.189,358.689 68.442 C 358.909 67.165,358.863 67.095,357.930 67.273 C 357.054 67.441,356.959 67.346,357.127 66.469 C 357.287 65.631,357.191 65.509,356.509 65.687 C 355.855 65.858,355.742 65.745,355.913 65.091 C 356.091 64.409,355.969 64.313,355.131 64.473 C 354.262 64.639,354.160 64.543,354.321 63.704 C 354.494 62.795,354.427 62.759,353.027 63.021 C 351.387 63.329,349.696 62.091,349.923 60.749 C 350.079 59.833,349.303 59.417,348.571 60.024 C 348.087 60.425,347.806 60.357,347.062 59.659 C 346.560 59.186,345.671 58.800,345.088 58.800 C 344.438 58.800,343.863 58.491,343.600 58.000 C 343.271 57.386,342.733 57.189,341.286 57.154 C 340.249 57.128,339.715 57.025,340.100 56.924 C 342.127 56.395,340.798 55.276,338.400 55.493 C 336.354 55.679,336.000 55.614,336.000 55.056 C 336.000 54.547,335.603 54.400,334.227 54.400 C 332.805 54.400,332.404 54.241,332.200 53.600 C 331.988 52.932,331.595 52.800,329.820 52.800 C 328.030 52.800,327.660 52.673,327.484 52.000 C 327.313 51.346,326.938 51.200,325.437 51.200 C 324.133 51.200,323.368 50.968,322.800 50.400 C 322.217 49.817,321.467 49.600,320.037 49.600 C 318.316 49.600,318.099 49.508,318.271 48.851 C 318.452 48.158,318.246 48.115,315.533 48.273 C 313.286 48.405,312.764 48.341,313.300 48.002 C 314.991 46.934,314.101 46.469,310.800 46.695 C 308.094 46.880,307.600 46.820,307.600 46.300 C 307.600 45.490,306.754 45.200,304.387 45.200 C 302.961 45.200,302.337 45.016,302.055 44.512 C 301.754 43.975,300.889 43.769,298.135 43.575 C 296.191 43.439,294.915 43.298,295.300 43.263 C 295.685 43.229,296.000 42.953,296.000 42.650 C 296.000 42.214,295.237 42.128,292.300 42.235 C 290.265 42.309,288.915 42.273,289.300 42.155 C 289.685 42.038,290.000 41.633,290.000 41.257 C 290.000 40.645,289.573 40.589,286.032 40.731 C 282.335 40.880,282.027 40.833,281.535 40.045 C 281.067 39.296,280.633 39.200,277.704 39.200 C 274.933 39.200,274.271 39.071,273.600 38.400 C 272.886 37.686,272.267 37.600,267.843 37.600 C 263.805 37.600,262.843 37.489,262.655 37.000 C 262.470 36.516,261.554 36.400,257.909 36.400 C 253.826 36.400,253.345 36.323,252.893 35.600 C 252.423 34.847,251.960 34.800,245.086 34.800 C 238.273 34.800,237.731 34.746,237.093 34.000 C 236.441 33.238,235.913 33.200,226.032 33.200 C 217.632 33.200,215.550 33.093,215.092 32.635 C 214.486 32.029,196.348 31.551,186.083 31.872 M219.580 35.448 C 225.989 35.578,230.194 35.843,231.780 36.217 C 233.344 36.586,236.480 36.790,240.648 36.794 C 245.983 36.799,247.528 36.938,249.600 37.600 C 251.140 38.092,253.206 38.400,254.966 38.400 C 256.802 38.400,258.643 38.687,260.104 39.200 C 261.771 39.786,263.405 40.000,266.210 40.000 C 268.972 40.000,270.392 40.182,271.304 40.654 C 272.104 41.067,273.710 41.334,275.671 41.380 C 277.942 41.433,278.974 41.633,279.519 42.126 C 280.065 42.621,281.000 42.801,283.031 42.803 C 285.121 42.805,286.094 43.000,287.000 43.600 C 287.787 44.121,288.877 44.396,290.169 44.397 C 291.452 44.399,292.397 44.635,292.883 45.076 C 293.353 45.501,294.551 45.817,296.115 45.928 C 297.482 46.025,298.955 46.351,299.389 46.652 C 299.823 46.953,301.104 47.200,302.235 47.200 C 303.686 47.200,304.592 47.436,305.309 48.000 C 305.997 48.541,306.932 48.800,308.200 48.800 C 309.468 48.800,310.403 49.059,311.091 49.600 C 311.662 50.050,312.714 50.400,313.491 50.400 C 314.268 50.400,315.319 50.750,315.891 51.200 C 316.489 51.670,317.514 52.000,318.377 52.000 C 319.186 52.000,320.196 52.264,320.624 52.587 C 321.051 52.910,322.120 53.184,323.000 53.196 C 323.953 53.209,325.005 53.534,325.600 54.000 C 326.150 54.430,327.202 54.786,327.937 54.791 C 328.672 54.796,329.731 55.160,330.291 55.600 C 330.850 56.040,331.802 56.400,332.405 56.400 C 333.008 56.400,333.707 56.648,333.959 56.950 C 334.210 57.253,335.108 57.611,335.956 57.747 C 336.803 57.882,337.722 58.264,337.997 58.596 C 338.273 58.928,339.078 59.200,339.787 59.200 C 340.568 59.200,341.361 59.515,341.800 60.000 C 342.198 60.440,342.924 60.800,343.413 60.800 C 343.902 60.800,344.526 61.070,344.800 61.400 C 345.074 61.730,345.522 62.000,345.797 62.000 C 346.071 62.000,347.200 62.720,348.305 63.600 C 349.410 64.480,350.443 65.200,350.600 65.200 C 351.307 65.200,355.121 68.655,356.483 70.529 C 357.310 71.668,358.530 73.337,359.193 74.238 C 359.856 75.139,360.591 76.430,360.827 77.106 C 361.063 77.782,361.513 78.435,361.828 78.555 C 362.143 78.676,362.400 79.293,362.400 79.925 C 362.400 80.568,362.753 81.396,363.200 81.800 C 363.663 82.219,364.000 83.032,364.000 83.730 C 364.000 84.394,364.312 85.281,364.693 85.702 C 365.218 86.283,365.389 87.206,365.404 89.534 C 365.418 91.905,365.623 92.982,366.311 94.284 L 367.200 95.968 367.200 136.140 C 367.200 175.178,367.177 176.423,366.375 180.256 C 365.709 183.441,365.547 185.699,365.537 191.991 C 365.525 198.846,365.432 199.961,364.762 201.275 C 364.166 202.443,364.000 203.623,364.000 206.699 C 364.000 209.861,363.841 210.941,363.189 212.215 C 362.553 213.458,362.390 214.490,362.436 217.000 C 362.485 219.653,362.344 220.456,361.610 221.697 C 360.885 222.923,360.772 223.542,360.988 225.111 C 361.206 226.696,361.109 227.208,360.426 228.077 C 359.792 228.883,359.598 229.715,359.591 231.663 C 359.584 233.564,359.386 234.451,358.800 235.200 C 358.319 235.815,358.014 236.831,358.009 237.838 C 358.003 238.960,357.748 239.704,357.200 240.200 C 356.696 240.656,356.400 241.432,356.400 242.299 C 356.400 243.058,356.049 244.120,355.617 244.670 C 355.077 245.356,354.903 246.017,355.059 246.796 C 355.235 247.675,355.098 248.027,354.443 248.377 C 353.812 248.715,353.600 249.212,353.600 250.352 C 353.600 251.368,353.333 252.117,352.800 252.600 C 352.360 252.998,352.000 253.809,352.000 254.401 C 352.000 254.993,351.640 255.893,351.200 256.400 C 350.760 256.907,350.400 257.686,350.400 258.130 C 350.400 258.574,350.113 259.254,349.762 259.642 C 349.411 260.030,349.084 260.918,349.036 261.616 C 348.988 262.317,348.647 263.054,348.274 263.262 C 347.893 263.476,347.600 264.125,347.600 264.758 C 347.600 265.373,347.240 266.202,346.800 266.600 C 346.360 266.998,346.000 267.724,346.000 268.213 C 346.000 268.702,345.730 269.326,345.400 269.600 C 345.070 269.874,344.800 270.402,344.800 270.774 C 344.800 271.145,344.440 271.836,344.000 272.308 C 343.560 272.780,343.200 273.506,343.200 273.921 C 343.200 274.336,342.840 275.002,342.400 275.400 C 341.960 275.798,341.600 276.428,341.600 276.800 C 341.600 277.172,341.240 277.802,340.800 278.200 C 340.360 278.598,340.000 279.352,340.000 279.875 C 340.000 280.397,339.754 280.919,339.454 281.035 C 339.154 281.150,338.416 282.217,337.815 283.406 C 337.213 284.595,336.469 285.777,336.161 286.033 C 335.852 286.289,335.600 286.772,335.600 287.108 C 335.600 287.443,334.925 288.539,334.100 289.543 C 332.646 291.313,331.938 292.355,331.346 293.600 C 331.189 293.930,330.841 294.333,330.573 294.496 C 330.304 294.659,329.691 295.559,329.209 296.496 C 328.727 297.433,327.656 298.920,326.828 299.800 C 326.000 300.680,324.900 302.120,324.382 303.000 C 323.865 303.880,321.655 306.490,319.471 308.800 C 317.287 311.110,315.057 313.697,314.514 314.549 C 313.434 316.246,300.322 329.503,296.800 332.459 C 291.403 336.989,288.147 339.862,287.490 340.674 C 287.099 341.157,285.509 342.397,283.956 343.430 C 282.402 344.462,280.832 345.612,280.466 345.985 C 280.100 346.357,278.450 347.713,276.800 348.997 C 275.150 350.281,273.260 351.868,272.600 352.525 C 271.940 353.181,270.845 353.952,270.166 354.237 C 269.488 354.522,268.329 355.319,267.592 356.007 C 266.855 356.696,265.598 357.593,264.799 358.000 C 264.000 358.408,263.115 359.020,262.832 359.361 C 262.549 359.702,261.347 360.440,260.159 361.002 C 258.972 361.564,258.000 362.191,258.000 362.395 C 258.000 362.599,257.145 363.254,256.100 363.850 C 255.055 364.445,253.840 365.246,253.400 365.629 C 252.960 366.012,251.819 366.729,250.865 367.222 C 249.911 367.714,249.036 368.361,248.922 368.659 C 248.808 368.956,248.462 369.200,248.153 369.200 C 247.844 369.200,246.695 369.830,245.600 370.600 C 244.505 371.370,243.335 372.000,243.000 372.000 C 242.666 372.000,242.084 372.360,241.707 372.800 C 241.330 373.240,240.724 373.600,240.360 373.600 C 239.996 373.600,239.477 373.866,239.208 374.190 C 238.939 374.515,237.712 375.257,236.483 375.838 C 235.253 376.420,233.999 377.144,233.695 377.448 C 233.391 377.752,232.802 378.000,232.386 378.000 C 231.969 378.000,231.435 378.360,231.200 378.800 C 230.950 379.267,230.362 379.600,229.789 379.600 C 229.240 379.600,228.587 379.953,228.307 380.400 C 228.032 380.840,227.423 381.200,226.953 381.200 C 226.483 381.200,225.881 381.461,225.617 381.780 C 224.948 382.586,221.929 384.000,220.877 384.000 C 220.398 384.000,219.782 384.360,219.507 384.800 C 219.182 385.321,218.574 385.600,217.766 385.600 C 217.032 385.600,216.228 385.927,215.800 386.400 C 215.399 386.843,214.568 387.200,213.938 387.200 C 213.312 387.200,212.800 387.351,212.800 387.536 C 212.800 387.969,210.979 388.800,210.030 388.800 C 209.627 388.800,209.074 389.070,208.800 389.400 C 208.471 389.797,207.576 390.000,206.161 390.000 C 204.725 390.000,203.588 390.263,202.710 390.799 C 201.024 391.826,198.551 391.827,197.000 390.800 C 196.197 390.268,195.123 390.004,193.754 390.003 C 192.317 390.001,191.405 389.762,190.691 389.200 C 190.131 388.760,189.266 388.400,188.768 388.400 C 188.270 388.400,187.523 388.093,187.108 387.717 C 186.693 387.341,185.852 387.072,185.240 387.118 C 184.551 387.171,183.850 386.898,183.401 386.402 C 183.002 385.961,182.372 385.600,182.000 385.600 C 181.628 385.600,180.998 385.240,180.600 384.800 C 180.202 384.360,179.559 384.000,179.171 384.000 C 178.350 384.000,174.543 382.155,174.192 381.587 C 174.060 381.374,173.541 381.200,173.038 381.200 C 172.535 381.200,171.798 380.840,171.400 380.400 C 171.002 379.960,170.387 379.600,170.034 379.600 C 169.681 379.600,169.168 379.240,168.893 378.800 C 168.618 378.360,167.973 378.000,167.459 378.000 C 166.945 378.000,166.198 377.640,165.800 377.200 C 165.402 376.760,164.875 376.400,164.629 376.400 C 164.383 376.400,163.225 375.770,162.056 375.000 C 160.887 374.230,159.794 373.600,159.627 373.600 C 159.460 373.600,158.998 373.240,158.600 372.800 C 158.202 372.360,157.632 372.000,157.334 372.000 C 157.036 372.000,155.895 371.370,154.800 370.600 C 153.705 369.830,152.650 369.200,152.456 369.200 C 152.263 369.200,151.200 368.480,150.095 367.600 C 148.990 366.720,147.805 366.000,147.463 366.000 C 147.120 366.000,146.696 365.775,146.520 365.500 C 146.078 364.809,143.734 363.200,143.169 363.200 C 142.914 363.200,142.069 362.641,141.290 361.957 C 140.512 361.274,139.363 360.536,138.738 360.318 C 138.112 360.100,137.600 359.773,137.600 359.590 C 137.600 359.408,136.655 358.717,135.500 358.055 C 134.345 357.393,132.780 356.210,132.022 355.426 C 131.263 354.642,130.383 354.000,130.066 354.000 C 129.749 354.000,128.299 353.041,126.845 351.869 C 125.390 350.697,123.570 349.309,122.800 348.785 C 122.030 348.261,121.176 347.527,120.903 347.153 C 120.259 346.272,115.394 342.400,114.932 342.400 C 114.737 342.400,113.412 341.210,111.988 339.755 C 110.565 338.300,108.077 336.119,106.459 334.909 C 102.914 332.256,87.783 317.497,86.157 315.106 C 84.957 313.341,84.232 312.469,80.200 307.942 C 77.261 304.643,73.494 299.828,71.545 296.882 C 70.746 295.672,69.801 294.520,69.445 294.321 C 69.090 294.123,68.800 293.673,68.800 293.321 C 68.800 292.970,68.200 291.944,67.466 291.041 C 66.733 290.139,65.645 288.560,65.048 287.534 C 64.452 286.508,63.702 285.451,63.382 285.185 C 63.062 284.919,62.800 284.463,62.800 284.171 C 62.800 283.879,62.260 282.840,61.600 281.862 C 60.940 280.884,60.400 279.899,60.400 279.673 C 60.400 279.446,59.989 278.753,59.487 278.131 C 58.654 277.098,58.050 275.973,56.842 273.200 C 56.382 272.146,55.891 271.295,54.716 269.516 C 54.322 268.920,54.000 268.093,54.000 267.678 C 54.000 267.263,53.640 266.598,53.200 266.200 C 52.760 265.802,52.400 265.157,52.400 264.767 C 52.400 264.376,52.130 263.787,51.800 263.457 C 51.470 263.127,51.199 262.349,51.197 261.729 C 51.196 261.108,50.837 260.060,50.400 259.400 C 49.963 258.740,49.604 257.823,49.603 257.362 C 49.601 256.901,49.240 256.198,48.800 255.800 C 48.315 255.361,48.000 254.568,48.000 253.787 C 48.000 253.078,47.744 252.286,47.431 252.026 C 47.118 251.766,46.744 250.855,46.600 250.000 C 46.456 249.145,46.082 248.234,45.769 247.974 C 45.446 247.706,45.199 246.787,45.197 245.851 C 45.196 244.877,44.869 243.708,44.400 243.000 C 43.963 242.340,43.604 241.333,43.603 240.762 C 43.601 240.191,43.240 239.398,42.800 239.000 C 42.229 238.483,42.000 237.768,42.000 236.501 C 42.000 235.341,41.727 234.379,41.213 233.725 C 40.593 232.938,40.476 232.355,40.663 230.991 C 40.849 229.635,40.716 228.958,40.050 227.882 C 39.384 226.803,39.200 225.866,39.200 223.547 C 39.200 221.352,38.993 220.203,38.400 219.096 C 37.875 218.116,37.600 216.839,37.600 215.382 C 37.600 214.041,37.327 212.652,36.911 211.880 C 36.367 210.869,36.214 209.507,36.185 205.400 C 36.157 201.516,35.957 199.592,35.397 197.800 C 34.679 195.504,34.645 193.063,34.623 141.600 L 34.600 87.800 35.500 86.206 C 35.995 85.329,36.400 84.046,36.400 83.355 C 36.400 82.664,36.670 81.874,37.000 81.600 C 37.330 81.326,37.600 80.747,37.600 80.314 C 37.600 79.881,37.960 79.069,38.400 78.509 C 38.840 77.950,39.200 77.220,39.200 76.887 C 39.200 76.555,39.830 75.514,40.600 74.574 C 41.370 73.634,42.000 72.695,42.000 72.487 C 42.000 71.036,50.132 64.136,53.856 62.426 C 54.767 62.008,55.632 61.471,55.780 61.233 C 55.927 60.995,56.323 60.800,56.661 60.800 C 56.998 60.800,57.731 60.440,58.291 60.000 C 58.850 59.560,59.698 59.200,60.174 59.200 C 60.650 59.200,61.240 59.000,61.485 58.755 C 61.730 58.510,62.787 58.150,63.835 57.954 C 64.882 57.758,66.037 57.329,66.401 56.999 C 66.765 56.670,67.610 56.400,68.278 56.400 C 68.946 56.400,69.950 56.040,70.509 55.600 C 71.082 55.149,72.132 54.800,72.914 54.800 C 73.677 54.800,74.514 54.544,74.774 54.231 C 75.034 53.918,76.001 53.539,76.923 53.388 C 77.845 53.237,78.870 52.885,79.200 52.606 C 79.530 52.326,80.747 52.012,81.904 51.907 C 83.061 51.802,84.335 51.420,84.736 51.058 C 85.136 50.696,86.100 50.400,86.878 50.400 C 87.686 50.400,88.728 50.057,89.309 49.600 C 90.010 49.049,90.932 48.800,92.274 48.800 C 93.364 48.800,94.602 48.534,95.084 48.196 C 95.559 47.864,96.873 47.515,98.005 47.421 C 99.138 47.327,100.493 46.969,101.018 46.625 C 101.548 46.278,102.825 46.000,103.892 46.000 C 105.048 46.000,106.406 45.682,107.304 45.200 C 108.144 44.750,109.561 44.400,110.545 44.400 C 111.686 44.400,112.645 44.123,113.309 43.600 C 114.077 42.996,114.947 42.797,116.863 42.786 C 118.303 42.778,119.832 42.525,120.400 42.200 C 120.950 41.886,122.480 41.616,123.800 41.601 C 125.120 41.586,127.190 41.226,128.400 40.800 C 129.777 40.316,131.688 40.021,133.510 40.013 C 135.364 40.005,137.246 39.710,138.696 39.200 C 140.249 38.654,141.998 38.400,144.200 38.400 C 146.402 38.400,148.151 38.146,149.704 37.600 C 151.575 36.942,153.005 36.800,157.740 36.800 C 161.884 36.800,163.985 36.629,165.232 36.189 C 166.590 35.710,169.599 35.538,179.141 35.397 C 185.837 35.298,191.425 35.100,191.558 34.957 C 191.691 34.814,195.850 34.821,200.800 34.973 C 205.750 35.125,214.201 35.338,219.580 35.448 " stroke="none" fill="#425630" fill-rule="evenodd"></path><path id="path3" d="M203.000 98.403 C 192.609 99.980,187.506 103.291,176.499 115.600 C 173.646 118.790,165.257 127.859,157.856 135.753 C 150.455 143.647,144.400 150.298,144.400 150.532 C 144.400 150.990,147.454 153.965,152.625 158.544 C 154.398 160.115,161.418 166.448,168.225 172.618 C 175.031 178.789,183.300 186.254,186.600 189.209 C 189.900 192.164,192.690 194.676,192.800 194.791 C 194.736 196.817,200.129 201.228,200.550 201.131 C 201.061 201.013,211.761 189.950,221.000 179.989 C 222.980 177.854,227.648 172.841,231.373 168.848 C 244.528 154.749,246.949 149.805,246.967 137.000 C 247.002 112.794,226.540 94.831,203.000 98.403 M216.000 99.382 C 220.997 100.500,221.790 100.757,225.413 102.434 C 240.206 109.283,249.155 126.729,246.222 143.000 C 244.496 152.575,242.090 156.738,232.231 167.205 C 230.674 168.858,227.064 172.728,224.210 175.805 C 221.355 178.882,217.388 183.110,215.395 185.200 C 213.402 187.290,210.417 190.440,208.762 192.200 C 207.108 193.960,204.611 196.615,203.213 198.100 C 200.252 201.248,200.579 201.144,198.800 199.496 C 198.030 198.782,195.780 196.759,193.800 194.999 C 191.820 193.240,190.110 191.709,190.000 191.598 C 189.890 191.487,188.182 189.957,186.204 188.198 C 184.225 186.439,180.621 183.200,178.193 181.000 C 175.765 178.800,171.988 175.380,169.799 173.400 C 167.610 171.420,163.835 167.997,161.410 165.794 C 158.984 163.591,154.345 159.389,151.100 156.455 C 145.777 151.643,144.448 150.001,145.500 149.533 C 145.665 149.460,146.880 148.229,148.200 146.799 C 149.520 145.368,153.390 141.236,156.800 137.617 C 166.967 126.826,174.154 119.148,175.000 118.173 C 186.889 104.473,189.950 102.230,200.800 99.264 C 203.065 98.645,213.053 98.722,216.000 99.382 M199.800 109.562 C 194.346 111.053,191.690 113.274,179.190 126.800 C 176.241 129.990,171.183 135.300,167.949 138.600 C 158.133 148.617,157.433 150.045,160.947 152.891 C 163.471 154.936,164.686 154.199,171.984 146.195 C 173.186 144.878,177.164 140.650,180.824 136.800 C 184.485 132.950,188.272 128.909,189.240 127.820 C 196.263 119.920,199.555 118.470,206.016 120.432 C 210.380 121.758,212.605 120.076,212.594 115.463 C 212.580 109.924,207.330 107.503,199.800 109.562 M209.872 110.641 C 212.496 112.597,213.017 116.730,210.949 119.188 C 209.752 120.610,208.371 120.750,205.432 119.749 C 199.918 117.870,196.503 119.425,189.337 127.074 C 186.512 130.089,181.787 135.086,178.838 138.178 C 175.889 141.270,172.047 145.420,170.299 147.400 C 164.895 153.522,163.698 154.179,161.192 152.395 C 158.237 150.290,159.055 148.523,166.523 140.872 C 169.890 137.422,176.317 130.640,180.805 125.800 C 192.315 113.388,193.826 112.118,199.200 110.336 C 202.359 109.288,208.284 109.458,209.872 110.641 M135.950 159.553 C 133.606 162.250,117.349 179.844,108.699 189.044 C 94.380 204.275,92.047 208.157,90.795 218.842 C 87.110 250.268,122.212 272.355,148.849 255.371 C 152.517 253.032,158.351 247.116,178.599 225.200 C 182.766 220.690,187.846 215.240,189.888 213.090 C 191.930 210.939,193.600 208.946,193.600 208.661 C 193.600 208.176,189.583 204.135,184.989 200.000 C 183.890 199.010,181.102 196.480,178.795 194.378 C 176.488 192.276,169.920 186.343,164.200 181.193 C 158.480 176.043,151.403 169.614,148.473 166.907 C 137.980 157.210,137.984 157.213,135.950 159.553 M139.032 159.100 C 139.463 159.485,140.622 160.506,141.608 161.368 C 142.594 162.231,145.470 164.858,148.000 167.206 C 150.530 169.554,156.200 174.695,160.600 178.631 C 165.000 182.566,168.794 185.970,169.031 186.193 C 169.268 186.417,173.046 189.840,177.426 193.800 C 187.214 202.649,193.254 208.445,193.109 208.850 C 193.049 209.018,191.648 210.561,189.995 212.278 C 187.032 215.356,178.710 224.303,175.200 228.183 C 174.210 229.277,171.505 232.159,169.188 234.586 C 166.872 237.014,163.453 240.620,161.591 242.600 C 150.749 254.129,147.787 256.392,140.118 259.011 C 132.505 261.610,122.861 261.234,114.800 258.023 C 99.585 251.964,90.606 237.883,91.317 221.200 C 91.737 211.348,94.732 204.681,102.400 196.525 C 115.296 182.809,119.308 178.490,124.815 172.400 C 127.102 169.870,130.166 166.540,131.623 165.000 C 133.081 163.460,135.045 161.345,135.988 160.300 C 137.924 158.153,137.958 158.140,139.032 159.100 M294.192 199.338 C 291.163 200.324,293.300 198.124,257.760 236.835 C 253.602 241.364,247.045 248.474,243.189 252.635 C 239.333 256.796,234.572 262.000,232.610 264.200 C 230.647 266.400,228.785 268.357,228.470 268.548 C 228.042 268.809,224.872 265.833,215.849 256.699 C 202.986 243.679,202.885 243.600,199.000 243.600 C 191.876 243.600,186.191 252.065,189.252 258.116 C 190.368 260.323,197.015 267.455,217.572 288.505 C 225.850 296.981,230.680 297.267,237.504 289.686 C 240.305 286.574,247.898 278.200,256.622 268.600 C 258.422 266.620,262.467 262.120,265.613 258.600 C 268.758 255.080,272.973 250.400,274.979 248.200 C 286.738 235.304,292.543 229.010,298.704 222.474 C 306.446 214.262,307.324 212.934,307.351 209.400 C 307.402 202.612,300.455 197.299,294.192 199.338 M301.428 200.630 C 307.060 203.295,308.592 210.482,304.561 215.336 C 303.435 216.692,300.499 219.871,295.636 225.002 C 292.595 228.209,285.156 236.254,281.400 240.395 C 280.300 241.608,279.310 242.690,279.200 242.800 C 279.090 242.910,277.380 244.800,275.401 247.000 C 273.421 249.200,271.064 251.810,270.163 252.800 C 269.261 253.790,265.863 257.570,262.611 261.200 C 259.359 264.830,255.222 269.420,253.419 271.400 C 251.616 273.380,248.011 277.340,245.409 280.200 C 242.806 283.060,239.179 287.043,237.348 289.051 C 233.471 293.304,231.582 294.400,228.131 294.400 C 224.110 294.400,222.852 293.518,215.011 285.200 C 213.041 283.110,208.812 278.700,205.614 275.400 C 188.702 257.947,189.012 258.339,189.015 254.400 C 189.019 248.589,193.381 244.254,199.207 244.274 C 203.200 244.288,204.404 245.320,223.245 264.900 C 225.521 267.265,227.681 269.200,228.045 269.200 C 228.409 269.200,232.102 265.465,236.253 260.900 C 240.404 256.336,245.070 251.251,246.622 249.600 C 248.174 247.950,250.424 245.522,251.622 244.203 C 252.820 242.885,254.078 241.535,254.417 241.203 C 254.757 240.872,260.958 234.120,268.197 226.200 C 289.754 202.617,291.071 201.244,293.000 200.355 C 295.388 199.255,298.752 199.364,301.428 200.630 " stroke="none" fill="#8abcb7" fill-rule="evenodd"></path><path id="path4" d="M366.373 97.400 C 366.134 114.705,366.042 176.936,366.254 178.000 L 366.533 179.400 366.819 178.200 C 367.270 176.309,367.252 95.899,366.800 95.200 C 366.528 94.779,366.401 95.435,366.373 97.400 M201.400 98.167 C 191.739 100.057,186.677 103.575,175.168 116.398 C 173.096 118.707,169.960 122.130,168.200 124.005 C 166.440 125.881,162.570 130.019,159.600 133.201 C 156.630 136.384,152.656 140.610,150.768 142.594 C 145.277 148.364,144.000 149.852,144.000 150.477 C 144.000 151.033,149.130 156.210,152.601 159.158 C 154.324 160.621,160.312 166.022,164.200 169.619 C 169.030 174.088,171.038 175.915,172.800 177.441 C 173.790 178.298,174.870 179.276,175.200 179.613 C 175.792 180.219,190.128 193.124,192.756 195.417 C 193.501 196.068,194.311 196.780,194.556 197.000 C 200.651 202.488,200.289 202.439,204.272 198.300 C 211.385 190.907,216.372 185.660,218.622 183.202 C 219.930 181.774,222.292 179.254,223.871 177.602 C 225.450 175.951,227.081 174.206,227.496 173.725 C 227.911 173.244,230.242 170.724,232.678 168.125 C 244.480 155.529,247.655 148.912,247.710 136.800 C 247.820 112.443,225.140 93.523,201.400 98.167 M213.855 98.433 C 233.601 101.179,246.996 116.780,246.967 137.000 C 246.949 149.805,244.528 154.749,231.373 168.848 C 227.648 172.841,222.980 177.854,221.000 179.989 C 211.761 189.950,201.061 201.013,200.550 201.131 C 200.129 201.228,194.736 196.817,192.800 194.791 C 192.690 194.676,189.900 192.164,186.600 189.209 C 183.300 186.254,175.031 178.789,168.225 172.618 C 161.418 166.448,154.398 160.115,152.625 158.544 C 147.454 153.965,144.400 150.990,144.400 150.532 C 144.400 150.298,150.455 143.647,157.856 135.753 C 165.257 127.859,173.646 118.790,176.499 115.600 C 190.044 100.454,198.952 96.360,213.855 98.433 M199.200 110.336 C 193.826 112.118,192.315 113.388,180.805 125.800 C 176.317 130.640,169.890 137.422,166.523 140.872 C 159.055 148.523,158.237 150.290,161.192 152.395 C 163.698 154.179,164.895 153.522,170.299 147.400 C 172.047 145.420,175.889 141.270,178.838 138.178 C 181.787 135.086,186.512 130.089,189.337 127.074 C 196.503 119.425,199.918 117.870,205.432 119.749 C 209.328 121.077,211.586 120.012,212.238 116.539 C 213.264 111.067,206.582 107.888,199.200 110.336 M208.772 110.701 C 211.630 112.158,212.704 115.943,210.998 118.547 C 210.017 120.044,209.011 120.164,205.362 119.218 C 198.626 117.472,195.814 118.957,186.839 129.000 C 185.659 130.320,182.962 133.200,180.846 135.400 C 178.729 137.600,175.197 141.369,172.998 143.775 C 164.003 153.617,163.764 153.788,161.499 152.006 C 158.815 149.895,159.237 149.126,168.226 139.743 C 172.200 135.594,179.072 128.316,183.497 123.569 C 187.922 118.821,192.513 114.269,193.699 113.452 C 198.228 110.332,205.461 109.012,208.772 110.701 M134.159 160.916 C 130.540 164.714,127.705 167.784,122.607 173.425 C 119.534 176.824,114.016 182.737,112.000 184.789 C 110.959 185.849,101.871 195.700,99.744 198.074 C 81.112 218.870,90.438 251.254,117.619 260.141 C 131.528 264.688,145.403 260.720,156.800 248.936 C 164.509 240.964,172.973 232.005,179.600 224.800 C 182.130 222.050,185.476 218.450,187.036 216.800 C 195.664 207.673,195.456 208.976,189.200 203.262 C 186.670 200.951,182.800 197.414,180.600 195.401 C 176.558 191.703,169.602 185.378,163.000 179.400 C 161.020 177.607,158.590 175.438,157.600 174.581 C 155.480 172.745,146.468 164.485,145.600 163.582 C 143.790 161.699,138.581 157.600,137.998 157.600 C 137.624 157.600,135.897 159.092,134.159 160.916 M140.752 159.992 C 142.068 161.087,145.542 164.199,148.473 166.907 C 151.403 169.614,158.480 176.043,164.200 181.193 C 169.920 186.343,176.488 192.276,178.795 194.378 C 181.102 196.480,183.890 199.010,184.989 200.000 C 189.583 204.135,193.600 208.176,193.600 208.661 C 193.600 208.946,191.930 210.939,189.888 213.090 C 187.846 215.240,182.766 220.690,178.599 225.200 C 158.351 247.116,152.517 253.032,148.849 255.371 C 122.212 272.355,87.110 250.268,90.795 218.842 C 92.047 208.157,94.380 204.275,108.699 189.044 C 117.349 179.844,133.606 162.250,135.950 159.553 C 137.668 157.577,137.872 157.595,140.752 159.992 M365.293 198.800 C 365.293 199.570,365.375 199.885,365.476 199.500 C 365.576 199.115,365.576 198.485,365.476 198.100 C 365.375 197.715,365.293 198.030,365.293 198.800 M294.533 198.762 C 292.842 199.194,289.982 200.915,289.039 202.069 C 288.372 202.884,284.007 207.645,277.366 214.800 C 275.454 216.860,270.664 222.097,261.634 232.000 C 259.528 234.310,256.715 237.370,255.384 238.800 C 254.053 240.230,251.892 242.551,250.582 243.958 C 247.242 247.544,246.893 247.920,244.225 250.819 C 242.919 252.239,240.759 254.571,239.425 256.003 C 235.732 259.967,233.216 262.748,230.830 265.500 C 229.638 266.875,228.440 268.000,228.167 268.000 C 227.895 268.000,222.660 262.888,216.536 256.640 C 203.722 243.569,203.495 243.397,199.000 243.407 C 192.756 243.420,188.018 248.077,188.018 254.200 C 188.018 258.485,187.891 258.313,201.600 272.570 C 204.350 275.430,208.670 279.934,211.200 282.580 C 223.105 295.027,223.586 295.393,228.000 295.361 C 232.464 295.330,234.133 294.241,240.205 287.400 C 243.963 283.165,243.760 283.392,245.801 281.155 C 255.290 270.752,262.403 262.895,264.230 260.800 C 265.094 259.810,265.897 258.910,266.015 258.800 C 266.133 258.690,268.723 255.810,271.770 252.400 C 274.817 248.990,278.325 245.120,279.565 243.800 C 280.805 242.480,284.600 238.340,287.999 234.600 C 291.397 230.860,295.830 226.090,297.849 224.000 C 306.476 215.069,307.362 213.850,307.859 210.221 C 308.778 203.515,301.255 197.046,294.533 198.762 M301.400 199.964 C 306.393 202.185,308.876 208.800,306.471 213.474 C 305.998 214.395,302.502 218.445,298.704 222.474 C 292.543 229.010,286.738 235.304,274.979 248.200 C 272.973 250.400,268.758 255.080,265.613 258.600 C 262.467 262.120,258.422 266.620,256.622 268.600 C 247.898 278.200,240.305 286.574,237.504 289.686 C 230.680 297.267,225.850 296.981,217.572 288.505 C 197.015 267.455,190.368 260.323,189.252 258.116 C 186.191 252.065,191.876 243.600,199.000 243.600 C 202.885 243.600,202.986 243.679,215.849 256.699 C 224.872 265.833,228.042 268.809,228.470 268.548 C 228.785 268.357,230.647 266.400,232.610 264.200 C 234.572 262.000,239.333 256.796,243.189 252.635 C 247.045 248.474,253.602 241.364,257.760 236.835 C 284.172 208.067,290.599 201.162,291.534 200.549 C 294.318 198.725,298.109 198.500,301.400 199.964 M362.006 219.500 C 362.003 220.215,362.069 220.800,362.153 220.800 C 362.517 220.800,362.672 219.241,362.357 218.744 C 362.123 218.374,362.010 218.616,362.006 219.500 M360.406 227.100 C 360.411 227.957,360.498 228.068,360.800 227.600 C 361.306 226.817,361.306 226.000,360.800 226.000 C 360.580 226.000,360.403 226.495,360.406 227.100 M358.871 233.326 C 358.208 234.911,358.275 235.496,359.035 234.737 C 359.388 234.383,359.597 233.681,359.506 233.151 C 359.344 232.208,359.339 232.209,358.871 233.326 M327.443 298.233 C 327.293 298.623,327.382 298.806,327.675 298.708 C 328.273 298.509,328.602 297.600,328.076 297.600 C 327.861 297.600,327.576 297.885,327.443 298.233 M322.856 304.655 C 322.376 305.727,322.386 305.758,323.018 305.139 C 323.389 304.776,323.620 304.260,323.531 303.994 C 323.442 303.727,323.139 304.025,322.856 304.655 M199.200 391.200 C 197.841 391.486,197.856 391.496,199.724 391.547 C 200.916 391.580,201.553 391.448,201.400 391.200 C 201.264 390.980,201.028 390.824,200.876 390.853 C 200.724 390.882,199.970 391.038,199.200 391.200 " stroke="none" fill="#8db086" fill-rule="evenodd"></path></g></svg>